<svg width="192" height="28" viewBox="0 0 192 28" fill="none" xmlns="http://www.w3.org/2000/svg">
<path d="M76.6001 9.1C74.5001 8.9 72.7001 9.5 71.2001 11.4V10.8V0.799999V0.700001V0L65.6001 0.700001V26.8H71.1001V25.3C71.9001 25.9 72.6001 26.4 73.4001 26.8C76.6001 27.9 80.9001 27 82.4001 22.7C83.3001 19.9 83.3001 17.1 82.6001 14.2C81.9001 11.2 79.8001 9.5 76.6001 9.1ZM77.4001 20.4C77.1001 22.1 75.8001 23.1 74.2001 22.9C73.8001 22.9 73.4001 22.8 73.1001 22.6C71.8001 21.8 71.4001 20.6 71.3001 19.7C71.2001 18.5 71.1001 15.9 71.7001 14.7C72.2001 13.8 73.1001 13.3 74.3001 13.2C76.0001 13.1 77.2001 14 77.4001 15.7C77.6001 17.4 77.6001 18.9 77.4001 20.4Z" fill="#3B5998"/>
<path d="M96.2001 9.3999C94.3001 8.8999 92.3001 8.8999 90.4001 9.3999C87.6001 10.1999 85.6001 11.9999 85.0001 14.8999C84.6001 16.4999 84.6001 18.0999 84.7001 19.6999C84.9001 23.3999 87.2001 26.0999 90.8001 26.7999C90.9001 26.7999 90.9001 26.7999 91.0001 26.7999C91.1001 26.7999 91.3001 26.8999 91.4001 26.8999H91.5001C91.7001 26.8999 91.9001 26.9999 92.1001 26.9999C92.8001 27.0999 93.7001 27.0999 94.4001 26.9999H94.5001C98.2001 26.7999 101 24.4999 101.8 20.8999C102.3 18.8999 102.3 16.9999 101.8 14.9999C101.2 12.1999 99.3001 10.1999 96.2001 9.3999ZM96.5001 20.0999C96.5001 20.1999 96.5001 20.2999 96.4001 20.4999C96.0001 22.0999 94.9001 23.0999 93.3001 22.9999C91.6001 22.8999 90.4001 21.9999 90.3001 20.1999C90.2001 18.9999 90.2001 17.6999 90.3001 16.3999C90.5001 14.3999 91.7001 13.3999 93.5001 13.3999C95.0001 13.3999 96.1001 14.2999 96.4001 15.7999C96.8001 17.1999 96.5001 19.7999 96.5001 20.0999Z" fill="#3B5998"/>
<path d="M13 9.29995H9V6.59995C9.3 4.09995 13.4 4.59995 13.4 4.59995V4.39995V0.299951C13.3 0.299951 5.2 -1.60005 3.6 4.49995C3.3 5.29995 3.4 8.79995 3.4 9.29995H0V13.9999H3.6V26.6999H8.9V13.9999H13L13.5 9.29995H13Z" fill="#3B5998"/>
<path d="M25.6001 11.6001C25.5001 11.5001 25.5001 11.5 25.4001 11.4C25.3001 11.3 25.3001 11.3 25.3001 11.3C24.1001 10.1 23.6001 9.70005 22.6001 9.40005C18.8001 8.30005 15.2001 10.3001 14.1001 14.1001C13.3001 16.4001 13.3001 18.9 13.8001 21.1C14.7001 26.2 18.5001 27.9 22.5001 27.1C23.7001 26.8 24.7001 26.1 25.5001 25C25.5001 25 25.6001 24.9 25.7001 24.7V27H30.8001V9.40005H25.5001V11.6001H25.6001ZM25.3001 20.4C25.1001 22 23.8001 23 22.3001 23C20.7001 22.9 19.6001 22 19.4001 20.5C19.0001 18.3 19.5001 15.7001 19.5001 15.6001C19.9001 14.2001 21.0001 13.4 22.5001 13.4C24.0001 13.4 25.2001 14.4 25.4001 16C25.4001 17.4 25.4001 18.9 25.3001 20.4Z" fill="#3B5998"/>
<path d="M46.5998 25.5999C46.2998 24.6999 46.0998 23.8999 45.7998 22.9999L45.4998 21.9999C45.4998 21.9999 38.9998 25.0999 37.9998 19.1999C37.8998 18.1999 37.8998 17.1999 38.0998 16.2999C38.3998 14.4999 39.3998 13.4999 41.1998 13.3999C41.7998 13.2999 42.3998 13.3999 42.9998 13.4999C43.7998 13.5999 44.5998 13.8999 45.4998 14.0999C45.7998 13.0999 46.1998 12.1999 46.4998 11.2999C46.4998 11.0999 46.5998 10.9999 46.5998 10.8999L46.7998 10.2999C46.7998 10.1999 46.6998 10.0999 46.4998 10.0999C46.2998 9.9999 46.0998 9.8999 45.6998 9.6999C45.4998 9.5999 45.3998 9.59989 45.1998 9.49989C44.9998 9.49989 44.9998 9.3999 44.9998 9.3999C43.2998 8.8999 41.5998 8.79989 39.7998 8.99989C36.0998 9.39989 33.4998 11.5999 32.7998 15.2999C32.3998 17.1999 32.3998 19.1999 32.8998 21.0999C33.5998 23.8999 35.2998 25.8999 38.0998 26.6999C39.9998 27.2999 41.8998 27.2999 43.6998 26.9999C44.4998 26.8999 45.5998 26.3999 46.4998 26.0999L46.7998 25.9999L46.5998 25.5999Z" fill="#3B5998"/>
<path d="M63.6998 18.8C63.6998 17.6 63.6998 16.3 63.4998 15.2C62.9998 12 60.9998 9.89996 57.7998 9.29996C56.5998 9.09996 55.1998 9.09996 53.9998 9.19996C50.5998 9.49996 47.9998 11.7 47.3998 14.9C47.0998 16.8 46.9998 18.9 47.2998 20.9C47.6998 23.8 49.0998 25.7 51.5998 26.6C52.6998 27 58.2998 28.4 63.0998 25.9L62.8998 25.1C62.6998 24.1 62.3998 23.2 62.0998 22.3V22.2C62.0998 22.2 61.9998 22.2 61.7998 22.3C61.5998 22.4 61.3998 22.4 61.0998 22.5H60.9998C60.1998 22.7 59.1998 23 58.0998 23.1C57.0998 23.2 56.1998 23.2 55.1998 23.1C53.6998 22.8 52.3998 22.1 52.4998 20.1H53.3998C56.3998 20.1 59.4998 20.1 62.4998 20.1C62.5998 20.1 62.6998 20.1 62.6998 20.1H63.3998V19.9L63.6998 18.8ZM58.6998 16.4H52.6998C52.6998 15.2 52.8998 14.1 53.8998 13.5C54.9998 12.7 56.2998 12.7 57.3998 13.4C58.6998 13.9 58.7998 15.1 58.6998 16.4Z" fill="#3B5998"/>
<path d="M139.4 9.6001H133.5L128.3 17.5001V0.800097V0.700098V0.100098L122.8 0.700098V26.9001H128.3V18.9001L133.5 26.9001H139.4L133.7 18.2001L139.4 9.6001Z" fill="#3B5998"/>
<path d="M115.1 9.3999C113.2 8.8999 111.2 8.8999 109.3 9.3999C106.4 10.1999 104.5 11.9999 103.9 14.8999C103.5 16.4999 103.5 18.0999 103.6 19.6999C103.8 23.3999 106.1 26.0999 109.7 26.7999C109.8 26.7999 109.8 26.7999 109.9 26.7999C110 26.7999 110.2 26.8999 110.3 26.8999H110.4C110.6 26.8999 110.8 26.9999 111 26.9999C111.7 27.0999 112.6 27.0999 113.3 26.9999H113.4C117.1 26.7999 119.9 24.4999 120.7 20.8999C121.2 18.8999 121.2 16.9999 120.7 14.9999C120.1 12.1999 118.2 10.1999 115.1 9.3999ZM115.4 20.0999C115.4 20.1999 115.4 20.2999 115.3 20.4999C114.9 22.0999 113.8 23.0999 112.2 22.9999C110.5 22.8999 109.3 21.9999 109.2 20.1999C109.1 18.9999 109.1 17.6999 109.2 16.3999C109.4 14.3999 110.6 13.3999 112.4 13.3999C113.9 13.3999 115 14.2999 115.3 15.7999C115.7 17.1999 115.4 19.7999 115.4 20.0999Z" fill="#3B5998"/>
<path d="M163.1 26.3998L161.6 21.0998H153.5L152 26.3998H150L156.5 4.7998H158.7L165.2 26.3998H163.1ZM157.5 6.99981L153.8 19.4998H161.1L157.5 6.99981Z" fill="#828282"/>
<path d="M176.6 26.3999V24.0999C175.7 25.6999 174.1 26.8999 172.4 26.8999C168.9 26.8999 166.9 23.5999 166.9 18.6999C166.9 13.7999 168.9 10.4999 172.4 10.4999C174 10.4999 175.6 11.4999 176.6 13.2999V4.8999H178.2V26.4999L176.6 26.3999ZM176.6 22.4999V14.7999C175.9 13.2999 174.4 11.8999 172.7 11.8999C169.9 11.8999 168.6 14.9999 168.6 18.5999C168.6 22.1999 169.8 25.2999 172.7 25.2999C174.4 25.2999 175.9 23.9999 176.6 22.4999Z" fill="#828282"/>
<path d="M181.5 24.5999L182.4 23.4999C183.3 24.5999 184.6 25.4999 186.4 25.4999C188.4 25.4999 189.7 24.3999 189.7 22.5999C189.7 18.4999 181.9 19.7999 181.9 14.3999C181.9 12.1999 183.7 10.3999 186.6 10.3999C188.6 10.3999 190.1 11.1999 191.1 12.3999L190.2 13.4999C189.4 12.3999 188.1 11.7999 186.6 11.7999C184.7 11.7999 183.6 12.8999 183.6 14.3999C183.6 18.1999 191.4 17.0999 191.4 22.5999C191.4 25.0999 189.5 26.8999 186.6 26.8999C184.4 26.8999 182.9 26.0999 181.5 24.5999Z" fill="#828282"/>
</svg>
