<svg width="236" height="65" viewBox="0 0 236 65" fill="none" xmlns="http://www.w3.org/2000/svg">
<path fill-rule="evenodd" clip-rule="evenodd" d="M28.8133 0.183886C20.64 1.17381 13.2197 5.11517 7.90549 11.2891C2.83014 17.1854 0 24.7754 0 32.4901C0 46.8371 9.51598 59.5804 23.2893 63.6775C30.1493 65.7185 37.7205 65.3867 44.3711 62.7545C59.9595 56.5847 68.3185 39.625 63.7071 23.523C59.7192 9.59871 46.8007 -0.0940912 32.3565 0.000689C31.1752 0.00848981 29.5808 0.0909259 28.8133 0.183886ZM82.438 18.1098C81.9242 18.3338 81.2784 19.0801 81.0579 19.705C80.7995 20.4358 80.7969 44.2776 81.0553 45.0071C81.464 46.1638 82.4245 46.8078 83.7401 46.8078C84.7296 46.8078 85.4467 46.4868 85.9589 45.8145C86.5413 45.0508 86.6593 44.1972 86.6614 40.7318L86.6635 37.5972L88.9187 35.4387L91.174 33.28L94.1047 37.7931C95.7162 40.2753 97.455 42.9789 97.9688 43.8013C99.5361 46.3111 100.187 46.806 101.92 46.806C103.064 46.806 103.611 46.6024 104.167 45.9686C104.908 45.1248 104.904 43.8868 104.158 42.4153C103.909 41.9262 101.803 38.8055 99.4768 35.4804C97.1508 32.1553 95.2601 29.3969 95.2757 29.3506C95.2908 29.3042 96.9527 27.7069 98.9682 25.8009C103.107 21.8865 103.378 21.5345 103.268 20.2102C103.192 19.2939 102.723 18.5724 101.963 18.2043C101.249 17.8586 99.8465 17.8262 99.1851 18.1401C98.7873 18.329 96.4878 20.644 88.9312 28.4641L86.7285 30.7437L86.6635 25.4087C86.6053 20.6403 86.5735 20.0188 86.365 19.5555C85.8549 18.4239 85.0406 17.926 83.7125 17.9336C83.2273 17.9365 82.6538 18.0157 82.438 18.1098ZM160.724 18.1743C155.642 19.2853 152.093 22.8609 150.843 28.1284C150.106 31.2321 150.311 35.5546 151.328 38.3892C152.894 42.7497 155.741 45.4548 159.775 46.4157C161.884 46.9178 165.504 46.9429 167.415 46.4686C171.189 45.532 174.268 42.6215 175.154 39.1525C175.467 37.9284 175.469 37.1283 175.162 36.4502C174.587 35.1858 173.149 34.6704 171.714 35.2158C171.245 35.3946 170.691 36.2245 170.195 37.4919C169.334 39.691 167.978 41.1818 166.223 41.8557C165.275 42.2197 163.011 42.3562 161.91 42.1158C159.16 41.515 157.254 39.3019 156.572 35.9151C156.059 33.3699 156.256 29.7127 157.026 27.5099C157.917 24.957 159.868 23.0872 162.152 22.5972C162.55 22.5118 163.444 22.4722 164.236 22.5048C165.496 22.5567 165.712 22.6043 166.603 23.0279C167.882 23.6353 168.853 24.6305 169.918 26.4243C170.938 28.1407 171.268 28.5331 171.851 28.7257C172.608 28.9759 173.742 28.8303 174.29 28.4122C175.058 27.8257 175.317 27.1647 175.247 25.9652C175.198 25.1048 175.108 24.7871 174.656 23.8772C173.624 21.8025 172.169 20.4196 169.754 19.2203C167.792 18.246 166.817 18.0319 164.102 17.978C162.246 17.941 161.625 17.9772 160.724 18.1743ZM181.772 18.6703C181.23 18.9462 180.979 19.1745 180.733 19.6187L180.408 20.2038L180.373 32.2714C180.35 40.1623 180.383 44.5092 180.47 44.8306C180.666 45.5585 181.129 46.1684 181.742 46.5073C182.863 47.1265 184.761 46.7934 185.425 45.861C186.016 45.0303 186.06 44.5802 186.06 39.3602V34.4403H187.66C191.323 34.4403 191.883 34.9455 196.14 42.0932C198.085 45.3589 198.665 46.1344 199.471 46.546C200.131 46.8831 201.571 46.9051 202.198 46.5876C204.044 45.6539 204.052 44.2826 202.233 40.8424C200.651 37.8496 198.321 34.9499 196.747 34.0153C196.515 33.8773 196.324 33.7468 196.324 33.7251C196.324 33.7034 196.748 33.5571 197.267 33.4C200.409 32.4476 202.244 30.744 202.906 28.1652C203.185 27.0737 203.179 24.9986 202.892 23.9092C202.224 21.3747 200.263 19.4372 197.55 18.6297C196.864 18.4257 195.994 18.3954 189.633 18.3537L182.487 18.3068L181.772 18.6703ZM209.78 18.5126C209.046 18.7741 208.64 19.1074 208.343 19.6922C208.089 20.1912 208.082 20.4975 208.048 32.1642C208.023 40.5127 208.056 44.3332 208.157 44.8158C208.313 45.57 208.834 46.2792 209.476 46.6114C209.932 46.8473 211.385 46.8738 211.812 46.6542C211.976 46.5695 212.302 46.3189 212.537 46.0969C213.352 45.3246 213.344 45.4349 213.356 34.7091L213.367 25.0143L215.745 34.4403C217.053 39.6246 218.246 44.1881 218.395 44.5814C218.985 46.1328 219.949 46.806 221.578 46.806C222.293 46.806 222.687 46.7375 223.058 46.5482C223.776 46.1815 224.448 45.3811 224.723 44.5665C224.852 44.1814 226.025 39.6538 227.328 34.5053L229.697 25.1443L229.707 34.7091C229.717 45.1445 229.717 45.1385 230.461 46.0231C230.92 46.5695 231.54 46.8132 232.459 46.8088C233.288 46.8049 233.823 46.5861 234.322 46.0469C235.062 45.248 235.044 45.596 235.038 32.4994C235.032 19.7617 235.037 19.8677 234.439 19.2062C234.307 19.0603 233.965 18.8156 233.68 18.6623C233.211 18.411 232.918 18.3794 230.701 18.3407C227.924 18.2922 227.33 18.3926 226.724 19.0134C226.2 19.5497 225.973 20.2988 223.594 29.3333C222.498 33.4964 221.562 36.8605 221.515 36.8091C221.467 36.7577 220.482 33.1198 219.324 28.7249C218.166 24.33 217.104 20.4252 216.963 20.0475C216.652 19.2163 216.099 18.6342 215.452 18.4539C214.706 18.2467 210.401 18.2913 209.78 18.5126ZM35.0561 20.0431C37.5119 20.9091 39.3365 22.8493 40.0976 25.4043C40.4123 26.4605 40.4123 28.5086 40.0976 29.5648C39.6041 31.2214 38.3157 33.1157 37.2229 33.7915L36.7702 34.0715V38.0214C36.7702 41.7409 36.754 42.0147 36.4918 42.7161C36.1581 43.6082 35.3057 44.5152 34.3665 44.977C33.815 45.2482 33.5306 45.2965 32.4825 45.2965C31.3107 45.2965 31.2054 45.2729 30.4036 44.8311C29.8447 44.5232 29.3949 44.1494 29.0733 43.726C28.2275 42.6122 28.1948 42.4001 28.1948 38.0102V34.0856L27.6532 33.7104C26.9465 33.2209 25.9452 32.0093 25.4716 31.0706C24.3678 28.8823 24.365 26.0922 25.4648 23.9125C26.4822 21.8954 28.3945 20.3853 30.6635 19.8069C31.7951 19.5184 33.8871 19.6309 35.0561 20.0431ZM194.187 22.8811C195.089 23.0482 195.499 23.2428 196.148 23.8131C197.414 24.9256 197.631 27.3425 196.58 28.6192C195.606 29.8015 194.137 30.1372 189.471 30.2433L186.06 30.3208V26.53V22.7391H189.739C191.846 22.7391 193.747 22.7998 194.187 22.8811ZM114.338 25.7941C110.645 26.619 108.207 28.9853 107.171 32.7482C106.784 34.154 106.694 37.2034 106.993 38.7957C107.886 43.5514 111.221 46.4772 116.093 46.7768C118.957 46.9528 121.323 46.5138 123.153 45.4663C125.448 44.1522 126.837 41.7217 126.103 40.302C125.866 39.8433 125.183 39.5108 124.477 39.5108C123.776 39.5108 123.582 39.6226 122.279 40.7812C120.08 42.7356 118.996 43.2183 117.016 43.1247C115.69 43.0621 114.877 42.7392 113.963 41.9139C113.093 41.1273 112.265 39.2461 112.261 38.0481L112.259 37.5606L117.1 37.5562C122.873 37.551 124.37 37.4451 125.333 36.9739C125.881 36.7051 126.073 36.5213 126.315 36.0279C126.575 35.5 126.614 35.2357 126.598 34.1152C126.545 30.4025 124.145 27.2265 120.482 26.0218C119.595 25.7304 119.207 25.6844 117.327 25.6475C115.793 25.6174 114.943 25.6592 114.338 25.7941ZM129.736 25.7814C128.858 26.1682 128.241 27.1102 128.241 28.0617C128.241 28.7105 128.313 28.9051 132.069 38.3812C134.486 44.4769 135.133 46.2329 135.064 46.507C134.937 47.0228 133.997 48.9935 133.616 49.5447C133.059 50.3526 132.638 50.4704 130.664 50.372C129.093 50.2936 128.922 50.3078 128.541 50.5482C127.912 50.9437 127.664 51.4112 127.675 52.1777C127.701 53.9857 128.952 54.5484 132.686 54.4329C134.949 54.3627 135.609 54.1818 136.854 53.2895C137.651 52.7185 138.527 51.5149 139.156 50.1255C139.917 48.4475 147.055 29.5415 147.272 28.6289C147.455 27.8631 147.467 27.6087 147.342 27.228C147.153 26.6546 146.651 26.0424 146.162 25.7897C145.663 25.5309 144.295 25.5416 143.845 25.8079C143.081 26.2596 142.86 26.7943 139.731 35.7841C138.739 38.6327 137.903 40.8852 137.872 40.7896C137.537 39.7503 133.733 28.6875 133.477 28.0046C132.77 26.1226 132.208 25.5973 130.904 25.6049C130.476 25.6074 129.95 25.6868 129.736 25.7814ZM118.534 29.6308C119.939 30.1566 120.775 31.1878 121.225 32.9446C121.653 34.6201 122.176 34.4403 116.872 34.4403C111.581 34.4403 112.079 34.5912 112.464 33.1032C112.907 31.3932 113.889 30.1311 115.155 29.6441C116.086 29.2859 117.597 29.2799 118.534 29.6308Z" fill="#264785"/>
</svg>
