<svg width="145" height="66" viewBox="0 0 145 66" fill="none" xmlns="http://www.w3.org/2000/svg">
<path d="M49.561 15.7686V28.3487C49.561 28.757 49.2207 29.0893 48.8025 29.0893H43.2351C42.8153 29.0893 42.4766 28.757 42.4766 28.3487V8.48324C42.4766 8.07498 42.8169 7.74268 43.2351 7.74268H48.8025C49.2207 7.74268 49.561 8.07498 49.561 8.48324V10.0482C50.9598 8.34083 52.9274 7.27271 55.6827 7.27271C58.263 7.27271 60.4932 8.2981 61.8482 10.2191C63.5095 8.2981 65.871 7.27271 68.7576 7.27271C73.6556 7.27271 77.022 10.091 77.022 15.4696V28.3487C77.022 28.757 76.6817 29.0893 76.2635 29.0893H70.6961C70.2763 29.0893 69.9376 28.757 69.9376 28.3487V16.9222C69.9376 14.5739 68.5826 13.4219 66.7446 13.4219C65.2146 13.4219 63.9893 14.3619 63.2891 15.7702V28.3503C63.2891 28.7586 62.9487 29.0909 62.5306 29.0909H56.9632C56.5434 29.0909 56.2046 28.7586 56.2046 28.3503V16.9238C56.2046 14.5755 54.8497 13.4235 53.0117 13.4235C51.4379 13.4235 50.2563 14.3635 49.5562 15.7718" fill="black"/>
<path d="M86.6701 29.9999C82.4161 29.9999 78.8398 27.2084 78.8398 22.887C78.8398 18.9259 81.465 17.0788 86.353 15.8191L92.5998 14.1989C92.4186 12.7139 91.241 11.9931 89.3405 11.9931C87.6564 11.9931 86.4453 12.6339 85.8867 13.9153C85.7307 14.2723 85.3566 14.4826 84.9742 14.3925L80.0241 13.2212C79.5678 13.1127 79.3011 12.6288 79.4638 12.1917C80.8846 8.36743 84.8333 6.36353 89.6106 6.36353C96.0368 6.36353 99.7489 9.38022 99.7489 14.6911V28.7668C99.7489 29.199 99.3967 29.5477 98.9639 29.5477H93.5005C93.0745 29.5477 92.7256 29.209 92.7155 28.7852L92.6887 27.6122L92.6434 27.6573C90.7881 29.2324 88.9782 29.9982 86.6684 29.9982M88.5236 24.3703C89.4747 24.3703 90.1977 24.1 91.2846 23.4693L92.5511 22.7034L92.5964 19.056L89.3372 19.957C87.1196 20.5877 86.1232 21.1283 86.1232 22.3881C86.1232 23.783 87.3444 24.3686 88.5219 24.3686" fill="black"/>
<path d="M110.571 18.7526L108.45 20.7238V28.331C108.45 28.7515 108.113 29.0909 107.699 29.0909H102.318C101.903 29.0909 101.567 28.7499 101.567 28.331V0.75991C101.567 0.340985 101.904 0 102.318 0H107.699C108.113 0 108.45 0.340985 108.45 0.75991V13.2319L114.727 7.38639C114.865 7.25811 115.048 7.18505 115.236 7.18505H121.879C122.566 7.18505 122.892 8.03913 122.386 8.50677L115.94 14.4578L123.291 27.964C123.567 28.4706 123.205 29.0909 122.633 29.0909H116.353C116.073 29.0909 115.815 28.9334 115.687 28.6817L110.572 18.7509L110.571 18.7526Z" fill="black"/>
<path d="M134.065 29.9999C128.01 29.9999 122.477 26.0836 122.477 18.1592C122.477 10.6853 127.792 6.36353 133.629 6.36353C139.465 6.36353 144.085 10.7304 144.258 17.6185C144.277 18.3461 144.288 18.8533 144.295 19.2138C144.301 19.6509 143.96 20.0047 143.539 20.0047H129.447C129.665 22.7062 131.756 24.4166 134.413 24.4166C136.304 24.4166 137.854 23.604 138.941 22.1356C139.181 21.8102 139.625 21.7351 139.955 21.9637L143.474 24.3999C143.826 24.6435 143.914 25.1375 143.676 25.4996C141.79 28.368 138.681 29.9999 134.066 29.9999M129.579 15.5928H137.203C137.16 13.0264 135.33 11.9018 133.414 11.9018C131.628 11.9018 129.799 12.983 129.581 15.5928" fill="black"/>
<mask id="mask0_108334_148" style="mask-type:luminance" maskUnits="userSpaceOnUse" x="24" y="7" width="8" height="23">
<path d="M25.6786 7.43091H31.2096C31.6308 7.43091 31.9737 7.77374 31.9737 8.19494V28.6132C31.9737 29.0344 31.6308 29.3772 31.2096 29.3772H25.6786C25.2574 29.3772 24.9146 29.0344 24.9146 28.6132V8.19494C24.9146 7.77374 25.2574 7.43091 25.6786 7.43091Z" fill="white"/>
</mask>
<g mask="url(#mask0_108334_148)">
<path d="M31.1309 5.13874L17.7925 10.0569L25.761 31.6682L39.0994 26.75L31.1309 5.13874Z" fill="url(#paint0_linear_108334_148)"/>
</g>
<mask id="mask1_108334_148" style="mask-type:luminance" maskUnits="userSpaceOnUse" x="0" y="7" width="16" height="23">
<path d="M9.45447 7.70025L0.286092 25.9439C0.0967164 26.3211 0.248543 26.7798 0.625661 26.9692L5.56738 29.4523C5.9445 29.6417 6.40324 29.4898 6.59262 29.1127L15.761 10.869C15.9504 10.4919 15.7985 10.0332 15.4214 9.84378L10.4797 7.36068C10.3687 7.30517 10.2528 7.27905 10.1369 7.27905C9.85771 7.27905 9.58834 7.43251 9.45447 7.70025Z" fill="white"/>
</mask>
<g mask="url(#mask1_108334_148)">
<path d="M13.4542 1.5056L-8.05078 10.8027L2.59192 35.4201L24.0969 26.123L13.4542 1.5056Z" fill="url(#paint1_linear_108334_148)"/>
</g>
<mask id="mask2_108334_148" style="mask-type:luminance" maskUnits="userSpaceOnUse" x="13" y="7" width="12" height="23">
<path d="M17.1667 7.76562L13.2437 27.6517C13.162 28.0647 13.4298 28.4647 13.8428 28.5479L19.2645 29.6417C19.6791 29.725 20.084 29.4556 20.1656 29.041L24.0887 9.15491C24.1703 8.74188 23.9025 8.34191 23.4895 8.25865L18.0678 7.16484C18.0172 7.15504 17.9666 7.15015 17.916 7.15015C17.5585 7.15015 17.2385 7.40156 17.1667 7.76562Z" fill="white"/>
</mask>
<g mask="url(#mask2_108334_148)">
<path d="M22.856 3.58194L5.84277 9.84497L14.4762 33.2974L31.4895 27.0343L22.856 3.58194Z" fill="url(#paint2_linear_108334_148)"/>
</g>
<path d="M13.4412 55.2456H5.54181L4.03476 58.892H0L7.58335 41.8779H11.4722L19.0796 58.892H14.948L13.4412 55.2456ZM12.2017 52.2563L9.50343 45.7425L6.80557 52.2563H12.2017Z" fill="black"/>
<path d="M35.608 48.0516C35.608 51.8429 32.7642 54.2005 28.219 54.2005H24.7919V58.892H20.8545V41.8779H28.219C32.7642 41.8779 35.608 44.2357 35.608 48.0516ZM31.6219 48.0516C31.6219 46.1798 30.4066 45.0862 28.0005 45.0862H24.7919V50.9924H28.0005C30.4066 50.9924 31.6219 49.8986 31.6219 48.0516Z" fill="black"/>
<path d="M38.4033 41.8779H42.3407V58.892H38.4033V41.8779Z" fill="black"/>
<path d="M67.7241 41.8777H75.4534C81.0192 41.8777 84.8353 45.2317 84.8353 50.3841C84.8353 55.5375 81.0192 58.8915 75.4534 58.8915H67.7241V41.8777ZM75.2584 55.6588C78.6372 55.6588 80.8487 53.6411 80.8487 50.3843C80.8487 47.1275 78.6372 45.1099 75.2584 45.1099H71.6617V55.6588H75.2584Z" fill="black"/>
<path d="M95.6511 45.6206V49.1205C95.3349 49.0966 95.092 49.0718 94.8006 49.0718C92.7102 49.0718 91.3246 50.2147 91.3246 52.7182V58.8918H87.5327V45.815H91.1544V47.5409C92.0781 46.2769 93.6337 45.6206 95.6511 45.6206Z" fill="black"/>
<path d="M97.4502 41.8776C97.4502 40.6868 98.3981 39.7629 99.8078 39.7629C101.217 39.7629 102.165 40.6383 102.165 41.8043C102.165 43.0684 101.217 43.9923 99.8078 43.9923C98.3981 43.9925 97.4502 43.0686 97.4502 41.8776ZM97.9119 45.8148H101.704V58.8918H97.9119V45.8148Z" fill="black"/>
<path d="M118.207 45.8147L112.689 58.8917H108.776L103.283 45.8147H107.196L110.817 54.7107L114.561 45.8147H118.207Z" fill="black"/>
<path d="M132.134 53.4232H122.242C122.606 55.0511 123.991 56.0475 125.985 56.0475C127.37 56.0475 128.367 55.6349 129.266 54.7843L131.283 56.9714C130.068 58.3566 128.245 59.086 125.887 59.086C121.366 59.086 118.425 56.2425 118.425 52.3534C118.425 48.4401 121.415 45.6206 125.401 45.6206C129.241 45.6206 132.207 48.1972 132.207 52.4019C132.207 52.6933 132.158 53.1069 132.134 53.4232ZM122.193 51.2113H128.634C128.367 49.5584 127.127 48.4888 125.425 48.4888C123.7 48.4888 122.46 49.5339 122.193 51.2113Z" fill="black"/>
<path d="M44.9951 61.7746L53.1418 50.093L47.2113 41.8787H51.4646L55.3049 47.3951L64.1195 35H68.5913L57.711 50.2385L64.006 58.8918H59.4852L55.4508 52.9849L46.4514 65.3542L44.9951 61.7746Z" fill="#FFD900"/>
<path d="M44.5565 65.7543L43.1391 62.1548H0L1.61599 65.7543H44.5565Z" fill="#FFD900"/>
<defs>
<linearGradient id="paint0_linear_108334_148" x1="17.9191" y1="21.9383" x2="32.8459" y2="16.4345" gradientUnits="userSpaceOnUse">
<stop stop-color="#B02DE9"/>
<stop offset="0.02" stop-color="#B02DE9"/>
<stop offset="0.8" stop-color="#6D00CC"/>
<stop offset="1" stop-color="#6D00CC"/>
</linearGradient>
<linearGradient id="paint1_linear_108334_148" x1="4.92967" y1="19.5866" x2="20.9756" y2="12.6496" gradientUnits="userSpaceOnUse">
<stop stop-color="#FF00FF"/>
<stop offset="0.17" stop-color="#E90CF9"/>
<stop offset="0.54" stop-color="#C023ED"/>
<stop offset="0.73" stop-color="#B02DE9"/>
<stop offset="1" stop-color="#B02DE9"/>
</linearGradient>
<linearGradient id="paint2_linear_108334_148" x1="1.35025" y1="24.9807" x2="34.243" y2="12.872" gradientUnits="userSpaceOnUse">
<stop stop-color="#FF00FF"/>
<stop offset="0.02" stop-color="#FF00FF"/>
<stop offset="0.09" stop-color="#E90CF9"/>
<stop offset="0.23" stop-color="#C023ED"/>
<stop offset="0.3" stop-color="#B02DE9"/>
<stop offset="0.42" stop-color="#A42BE3"/>
<stop offset="0.63" stop-color="#8626D5"/>
<stop offset="0.85" stop-color="#6021C3"/>
<stop offset="1" stop-color="#6021C3"/>
</linearGradient>
</defs>
</svg>
