<svg width="142" height="65" viewBox="0 0 142 65" fill="none" xmlns="http://www.w3.org/2000/svg">
<path d="M68.3161 23.7539C67.2734 23.3913 66.4575 22.9833 65.8682 22.4393L66.6388 20.8074C67.1828 21.306 67.9081 21.7141 68.8148 22.0314C69.676 22.3487 70.583 22.4847 71.5349 22.4847C72.7587 22.4847 73.6652 22.258 74.2544 21.85C74.8436 21.442 75.1609 20.8981 75.1609 20.2181C75.1609 19.7194 74.9799 19.3114 74.6626 18.9941C74.3453 18.6768 73.9371 18.4501 73.4388 18.2688C72.9397 18.0875 72.2597 17.9062 71.3986 17.6795C70.3104 17.4075 69.404 17.1355 68.724 16.8635C68.0441 16.5915 67.4547 16.1835 66.9561 15.6396C66.4574 15.0956 66.2308 14.3249 66.2308 13.4182C66.2308 12.6476 66.4574 11.9223 66.8655 11.2876C67.2734 10.653 67.908 10.1544 68.7694 9.79173C69.6307 9.42905 70.6731 9.20239 71.8976 9.20239C72.7587 9.20239 73.6198 9.29304 74.4816 9.5197C75.3426 9.74637 76.0681 10.0637 76.6573 10.4717L75.9773 12.149C75.3426 11.741 74.708 11.469 73.9825 11.2423C73.3025 11.061 72.577 10.925 71.8976 10.925C70.7186 10.925 69.812 11.1517 69.2227 11.5597C68.6334 12.013 68.3161 12.557 68.3161 13.2369C68.3161 13.7356 68.4974 14.1436 68.8148 14.4609C69.1321 14.7782 69.5854 15.0049 70.0839 15.1862C70.583 15.3675 71.2623 15.5489 72.1241 15.7302C73.2116 16.0022 74.1188 16.2742 74.7982 16.5462C75.4782 16.8182 76.0681 17.2262 76.521 17.7702C77.0201 18.3141 77.2465 19.0394 77.2465 19.9914C77.2465 20.762 77.0201 21.4874 76.6119 22.122C76.2037 22.7566 75.5691 23.2553 74.708 23.618C73.8462 23.9806 72.8042 24.162 71.5349 24.162C70.4012 24.2526 69.3134 24.0713 68.3161 23.7539Z" fill="#232323"/>
<path d="M97.2834 14.0529C98.0997 14.8688 98.5079 16.0928 98.5079 17.6794V24.1166H96.4677V17.9061C96.4677 16.8181 96.1958 16.0021 95.7422 15.4581C95.2439 14.9142 94.5184 14.6421 93.6119 14.6421C92.5691 14.6421 91.7535 14.9595 91.1636 15.5942C90.5744 16.2288 90.2571 17.1354 90.2571 18.3594V24.1166H88.2176V17.9061C88.2176 16.8181 87.945 16.0021 87.4921 15.4581C86.9931 14.9142 86.2683 14.6421 85.3611 14.6421C84.319 14.6421 83.5027 14.9595 82.9135 15.5942C82.3243 16.2288 82.007 17.1354 82.007 18.3594V24.1166H79.9668V12.9196H81.9161V14.5969C82.3243 14.0075 82.868 13.5996 83.5027 13.2822C84.1827 12.9649 84.9082 12.8289 85.7693 12.8289C86.6303 12.8289 87.4013 13.0102 88.0813 13.3729C88.7614 13.7355 89.2597 14.2342 89.6224 14.9142C90.0306 14.2795 90.6198 13.7809 91.3907 13.4182C92.1609 13.0555 92.9773 12.8742 93.9292 12.8742C95.3341 12.8289 96.4677 13.2369 97.2834 14.0529Z" fill="#232323"/>
<path d="M109.84 13.9622C110.656 14.7329 111.064 15.8662 111.064 17.3622V24.1166H109.16V22.666C108.843 23.1646 108.344 23.5727 107.71 23.8446C107.075 24.1166 106.35 24.2526 105.489 24.2526C104.219 24.2526 103.222 23.9353 102.496 23.346C101.726 22.7567 101.363 21.9407 101.363 20.9887C101.363 20.0367 101.726 19.2208 102.451 18.6315C103.177 18.0421 104.309 17.7248 105.851 17.7248H109.069V17.3169C109.069 16.4555 108.797 15.7755 108.299 15.3222C107.8 14.8689 107.03 14.6422 106.078 14.6422C105.398 14.6422 104.763 14.7329 104.128 14.9596C103.494 15.1863 102.949 15.4582 102.542 15.8209L101.68 14.3249C102.27 13.8716 102.949 13.5089 103.72 13.2823C104.537 13.0557 105.352 12.9196 106.259 12.9196C107.845 12.829 109.024 13.1916 109.84 13.9622ZM107.845 22.122C108.39 21.7594 108.797 21.306 109.069 20.6714V19.1301H105.941C104.219 19.1301 103.358 19.7194 103.358 20.8527C103.358 21.3967 103.584 21.85 103.992 22.1673C104.446 22.4847 105.035 22.666 105.806 22.666C106.622 22.666 107.256 22.4847 107.845 22.122Z" fill="#232323"/>
<path d="M118.317 13.3275C118.997 13.0102 119.858 12.8289 120.81 12.8289V14.7782C120.719 14.7782 120.538 14.7782 120.356 14.7782C119.269 14.7782 118.407 15.0955 117.772 15.7755C117.138 16.4101 116.82 17.3621 116.82 18.586V24.1619H114.781V12.9196H116.73V14.8235C117.092 14.1435 117.637 13.6449 118.317 13.3275Z" fill="#232323"/>
<path d="M130.013 23.4366C129.741 23.7086 129.333 23.8899 128.924 24.0259C128.471 24.1619 128.063 24.2072 127.565 24.2072C126.431 24.2072 125.57 23.8899 124.936 23.3006C124.301 22.7113 124.029 21.85 124.029 20.7167V14.5969H122.125V12.9196H124.029V10.4717H126.069V12.9196H129.287V14.5969H126.069V20.626C126.069 21.2153 126.205 21.714 126.522 22.0313C126.839 22.3486 127.248 22.5299 127.837 22.5299C128.471 22.5299 128.97 22.3486 129.423 21.986L130.013 23.4366Z" fill="#232323"/>
<path d="M68.3161 45.468C67.2734 45.1054 66.4575 44.6974 65.8682 44.1534L66.6388 42.5215C67.1828 43.0201 67.9081 43.4281 68.8148 43.7454C69.676 44.0627 70.583 44.1987 71.5349 44.1987C72.7587 44.1987 73.6652 43.9721 74.2544 43.5641C74.8436 43.1561 75.1609 42.6121 75.1609 41.9321C75.1609 41.4335 74.9799 41.0255 74.6626 40.7082C74.3453 40.3908 73.9371 40.1642 73.4388 39.9829C72.9397 39.8015 72.2597 39.6202 71.3986 39.3936C70.3104 39.1215 69.404 38.8496 68.724 38.5776C68.0441 38.3056 67.4547 37.8976 66.9561 37.3536C66.4574 36.8096 66.2308 36.039 66.2308 35.1323C66.2308 34.3617 66.4574 33.6364 66.8655 33.0017C67.2734 32.3671 67.908 31.8684 68.7694 31.5058C69.6307 31.1432 70.6731 30.9165 71.8976 30.9165C72.7587 30.9165 73.6198 31.0072 74.4816 31.2338C75.3426 31.4605 76.0681 31.7778 76.6573 32.1858L75.9773 33.863C75.3426 33.4551 74.708 33.183 73.9825 32.9564C73.3025 32.7751 72.577 32.6391 71.8976 32.6391C70.7186 32.6391 69.812 32.8657 69.2227 33.2738C68.6334 33.727 68.3161 34.2711 68.3161 34.951C68.3161 35.4497 68.4974 35.8577 68.8148 36.175C69.1321 36.4923 69.5854 36.719 70.0839 36.9003C70.583 37.0816 71.2623 37.263 72.1241 37.4443C73.2116 37.7163 74.1188 37.9882 74.7982 38.2602C75.4782 38.5323 76.0681 38.9402 76.521 39.4842C77.0201 40.0282 77.2465 40.7535 77.2465 41.7055C77.2465 42.4762 77.0201 43.2014 76.6119 43.8361C76.2037 44.4708 75.5691 44.9694 74.708 45.332C73.8462 45.6947 72.8042 45.876 71.5349 45.876C70.4012 45.9667 69.3134 45.7854 68.3161 45.468Z" fill="#1380F6"/>
<path d="M90.0299 40.8894H80.9635C81.099 41.8867 81.5072 42.6573 82.2781 43.2466C83.0029 43.8359 83.9101 44.1532 85.0431 44.1532C86.3578 44.1532 87.446 43.7 88.2616 42.7933L89.3953 44.1079C88.8963 44.6972 88.2616 45.1506 87.4907 45.4679C86.7205 45.7852 85.9042 45.9212 84.9977 45.9212C83.8193 45.9212 82.7765 45.6945 81.87 45.1959C80.9635 44.6972 80.238 44.0173 79.7396 43.1559C79.2406 42.2946 79.0142 41.2973 79.0142 40.2094C79.0142 39.1214 79.2406 38.1694 79.7396 37.2628C80.238 36.4015 80.8726 35.7215 81.7337 35.2228C82.5954 34.7242 83.5474 34.4976 84.5902 34.4976C85.6777 34.4976 86.5842 34.7242 87.446 35.2228C88.2616 35.7215 88.9417 36.4015 89.3953 37.2628C89.8482 38.1241 90.1201 39.1214 90.1201 40.2547C90.0753 40.436 90.0753 40.6627 90.0299 40.8894ZM82.1418 37.1268C81.5072 37.7161 81.099 38.4867 81.0089 39.4387H88.126C88.0352 38.4867 87.627 37.7161 86.9924 37.1268C86.3578 36.5374 85.5421 36.2201 84.5447 36.2201C83.5928 36.2655 82.7765 36.5374 82.1418 37.1268Z" fill="#1380F6"/>
<path d="M102.179 35.7668C102.996 36.5828 103.448 37.8068 103.448 39.3934V45.8305H101.408V39.6654C101.408 38.5774 101.136 37.7614 100.638 37.2174C100.139 36.6735 99.3688 36.4015 98.4168 36.4015C97.3286 36.4015 96.4675 36.7188 95.8329 37.3535C95.1983 37.9881 94.881 38.8947 94.881 40.1187V45.8759H92.8408V34.7242H94.7901V36.4015C95.1983 35.8122 95.7421 35.4042 96.4221 35.0868C97.1022 34.7695 97.9178 34.6335 98.7796 34.6335C100.23 34.5429 101.364 34.9508 102.179 35.7668Z" fill="#1380F6"/>
<path d="M117.773 30.1911V45.7853H115.824V44.0173C115.37 44.652 114.826 45.1053 114.101 45.4226C113.421 45.74 112.65 45.9213 111.834 45.9213C110.747 45.9213 109.795 45.6947 108.933 45.196C108.072 44.6973 107.392 44.0627 106.939 43.2014C106.44 42.34 106.213 41.3427 106.213 40.2094C106.213 39.0762 106.44 38.0788 106.939 37.2629C107.437 36.4015 108.072 35.7216 108.933 35.2683C109.795 34.7696 110.747 34.543 111.834 34.543C112.65 34.543 113.376 34.679 114.056 34.9963C114.735 35.3136 115.28 35.7216 115.733 36.3109V30.1458H117.773V30.1911ZM113.965 43.6547C114.554 43.3374 115.008 42.8841 115.325 42.2494C115.643 41.6601 115.824 40.9801 115.824 40.2094C115.824 39.4388 115.643 38.7588 115.325 38.1695C115.008 37.5802 114.554 37.1269 113.965 36.8096C113.376 36.4923 112.741 36.3109 112.061 36.3109C111.336 36.3109 110.701 36.4923 110.157 36.8096C109.568 37.1269 109.16 37.5802 108.797 38.1695C108.48 38.7588 108.298 39.4388 108.298 40.2094C108.298 40.9801 108.48 41.6601 108.797 42.2494C109.115 42.8387 109.568 43.292 110.157 43.6547C110.747 43.972 111.381 44.1533 112.061 44.1533C112.741 44.1533 113.376 44.0174 113.965 43.6547Z" fill="#1380F6"/>
<path d="M131.645 40.8894H122.578C122.714 41.8867 123.122 42.6573 123.893 43.2466C124.618 43.8359 125.525 44.1532 126.658 44.1532C127.973 44.1532 129.061 43.7 129.876 42.7933L131.01 44.1079C130.511 44.6972 129.876 45.1506 129.106 45.4679C128.335 45.7852 127.519 45.9212 126.612 45.9212C125.434 45.9212 124.391 45.6945 123.485 45.1959C122.578 44.6972 121.853 44.0173 121.354 43.1559C120.855 42.2946 120.629 41.2973 120.629 40.2094C120.629 39.1214 120.855 38.1694 121.354 37.2628C121.853 36.4015 122.487 35.7215 123.348 35.2228C124.21 34.7242 125.162 34.4976 126.205 34.4976C127.292 34.4976 128.199 34.7242 129.061 35.2228C129.876 35.7215 130.556 36.4015 131.01 37.2628C131.463 38.1241 131.735 39.1214 131.735 40.2547C131.69 40.436 131.69 40.6627 131.645 40.8894ZM123.757 37.1268C123.122 37.7161 122.714 38.4867 122.624 39.4387H129.786C129.695 38.4867 129.287 37.7161 128.653 37.1268C128.018 36.5374 127.202 36.2201 126.205 36.2201C125.208 36.2655 124.391 36.5374 123.757 37.1268Z" fill="#1380F6"/>
<path d="M137.991 35.0417C138.671 34.7243 139.533 34.543 140.484 34.543V36.4923C140.394 36.4923 140.213 36.4923 140.032 36.4923C138.943 36.4923 138.082 36.8096 137.448 37.4896C136.813 38.1242 136.496 39.0762 136.496 40.3002V45.876H134.456V34.7243H136.405V36.5829C136.768 35.9029 137.311 35.4043 137.991 35.0417Z" fill="#1380F6"/>
<path d="M53.5824 26.7912C53.5824 12.013 41.5695 0 26.7912 0C12.013 0 0 12.013 0 26.7912C0 41.5695 11.9676 53.5824 26.7912 53.5824V64.6434L45.604 45.876C50.4998 41.0254 53.5824 34.271 53.5824 26.7912ZM38.8042 39.0762L26.7912 51.0892V43.972C17.3168 43.972 9.61035 36.2656 9.61035 26.7912C9.61035 17.3168 17.3168 9.61035 26.7912 9.61035C36.2656 9.61035 43.972 17.3168 43.972 26.7912C43.972 31.5511 42.0681 35.8123 38.9402 38.9402L38.8042 39.0762Z" fill="#1380F6"/>
</svg>
