<?xml version="1.0" standalone="no"?>
<!DOCTYPE svg PUBLIC "-//W3C//DTD SVG 20010904//EN"
 "http://www.w3.org/TR/2001/REC-SVG-20010904/DTD/svg10.dtd">
<svg version="1.0" xmlns="http://www.w3.org/2000/svg"
 width="65.000000pt" height="65.000000pt" viewBox="0 0 65.000000 65.000000"
 preserveAspectRatio="xMidYMid meet">
<metadata>
Created by potrace 1.16, written by Peter Selinger 2001-2019
</metadata>
<g transform="translate(0.000000,65.000000) scale(0.003174,-0.003174)"
fill="#000000" stroke="none">
<path d="M9655 20469 c-302 -17 -690 -59 -990 -105 -2660 -413 -5052 -1864
-6667 -4044 -589 -796 -1069 -1692 -1397 -2610 -29 -80 -56 -155 -61 -167 -23
-55 -153 -486 -199 -658 -182 -683 -289 -1355 -331 -2090 -13 -218 -13 -878 0
-1105 59 -1067 268 -2064 640 -3055 555 -1479 1474 -2841 2647 -3922 1327
-1225 2946 -2076 4688 -2467 494 -111 951 -179 1530 -227 205 -17 1011 -23
1256 -10 1771 97 3413 616 4904 1549 1843 1155 3291 2892 4090 4907 408 1029
640 2082 705 3200 13 219 13 931 0 1150 -163 2802 -1435 5370 -3570 7206 -954
819 -2089 1474 -3280 1892 -903 317 -1831 500 -2825 557 -198 11 -936 11
-1140 -1z m1140 -480 c1568 -87 3112 -562 4455 -1372 1892 -1140 3330 -2856
4118 -4912 559 -1459 754 -3056 566 -4635 -211 -1776 -922 -3477 -2046 -4892
-898 -1132 -2044 -2057 -3333 -2693 -281 -139 -368 -178 -620 -283 -1399 -580
-2986 -823 -4520 -692 -1640 141 -3194 683 -4560 1591 -1718 1142 -3023 2776
-3752 4699 -382 1006 -592 2070 -622 3157 -41 1470 232 2869 825 4223 92 212
328 677 453 894 761 1320 1781 2417 3041 3268 886 599 1872 1049 2915 1331
720 195 1492 306 2295 331 156 4 579 -3 785 -15z"/>
<path d="M9910 19023 c-721 -31 -1372 -132 -2030 -315 -1263 -351 -2428 -981
-3436 -1860 -294 -256 -774 -756 -1035 -1078 -220 -271 -520 -692 -505 -708
13 -12 1093 -7 1366 6 438 21 794 42 1100 63 509 34 509 34 575 13 71 -22 148
-82 187 -146 16 -25 36 -79 44 -120 39 -187 -62 -360 -241 -413 -60 -18 -439
-58 -765 -80 -129 -9 -254 -18 -277 -21 l-42 -5 126 -372 c122 -363 307 -911
698 -2077 106 -316 358 -1065 560 -1665 202 -599 454 -1351 562 -1670 107
-319 281 -839 388 -1155 106 -316 281 -836 388 -1155 418 -1243 477 -1418 482
-1423 2 -3 7 1 10 9 30 79 1915 5748 1915 5759 0 8 -38 119 -84 245 -129 354
-486 1331 -781 2140 -147 402 -319 873 -382 1048 -98 267 -119 318 -137 321
-12 3 -97 9 -191 15 -184 12 -616 55 -730 71 -188 28 -295 143 -303 325 -8
161 64 289 198 354 51 24 64 26 180 25 69 0 303 -13 520 -27 1480 -100 2242
-99 3695 5 165 12 359 22 430 22 114 1 136 -2 177 -21 71 -32 141 -103 174
-176 25 -53 29 -74 29 -152 0 -76 -4 -99 -27 -146 -60 -129 -155 -192 -325
-214 -142 -18 -518 -52 -766 -69 -108 -7 -200 -16 -203 -19 -7 -6 15 -73 621
-1872 202 -599 380 -1128 395 -1175 15 -47 116 -346 223 -665 315 -936 586
-1740 792 -2355 211 -630 861 -2560 1029 -3059 58 -173 108 -316 110 -318 6
-7 -8 -55 646 2137 111 371 271 898 355 1170 199 641 261 850 335 1128 175
666 229 1061 209 1530 -29 674 -207 1289 -569 1964 -93 173 -129 235 -367 623
-294 482 -409 705 -515 1000 -136 379 -164 772 -78 1098 122 460 417 829 814
1018 202 96 363 133 580 133 l148 1 -63 59 c-248 229 -632 529 -969 758 -511
346 -1116 664 -1705 895 -1017 400 -2149 609 -3245 601 -124 -1 -254 -3 -290
-5z"/>
<path d="M17944 14440 c3 -14 13 -90 21 -170 72 -691 36 -1414 -104 -2127 -99
-499 -291 -1144 -481 -1618 -34 -84 -46 -120 -420 -1200 -451 -1304 -692
-2002 -735 -2125 -24 -69 -127 -368 -230 -665 -103 -297 -206 -596 -230 -665
-24 -69 -147 -425 -274 -792 -486 -1406 -695 -2010 -767 -2217 -41 -118 -72
-216 -70 -218 10 -10 468 283 697 447 723 517 1432 1213 1945 1910 142 192
174 239 287 410 340 520 594 1005 819 1565 942 2346 817 5028 -338 7275 -95
185 -131 242 -120 190z"/>
<path d="M2172 13727 c-267 -605 -490 -1362 -601 -2037 -400 -2421 212 -4872
1700 -6806 183 -238 393 -484 566 -664 51 -53 108 -114 127 -137 50 -56 397
-380 541 -504 534 -461 1132 -861 1773 -1188 68 -34 126 -60 129 -58 4 5 -22
80 -317 887 -167 457 -354 970 -670 1835 -209 573 -492 1349 -810 2220 -310
849 -521 1428 -883 2420 -119 325 -327 894 -462 1265 -136 371 -325 889 -420
1150 -95 261 -241 662 -325 890 -83 228 -183 503 -222 610 -39 107 -74 199
-78 203 -4 4 -25 -35 -48 -86z"/>
<path d="M10380 9448 c-6 -18 -40 -116 -75 -218 -35 -102 -109 -318 -165 -480
-124 -360 -291 -846 -370 -1075 -32 -93 -104 -303 -160 -465 -56 -162 -128
-371 -160 -465 -32 -93 -104 -303 -160 -465 -200 -579 -313 -907 -370 -1075
-32 -93 -104 -303 -160 -465 -56 -162 -128 -371 -160 -465 -57 -168 -170 -496
-370 -1075 -56 -162 -128 -371 -160 -465 -32 -93 -104 -303 -160 -465 -56
-162 -115 -332 -130 -377 l-29 -83 72 -21 c39 -12 157 -43 262 -69 1605 -407
3325 -349 4890 166 94 31 174 60 179 64 5 5 -2 27 -17 52 -13 24 -104 261
-202 528 -97 267 -228 626 -291 797 -190 520 -336 921 -458 1255 -64 175 -168
459 -230 630 -63 172 -166 455 -229 628 -108 295 -601 1645 -904 2475 -413
1132 -423 1158 -427 1163 -2 2 -9 -12 -16 -30z"/>
</g>
</svg>
